Coordinates
version=1
nRows=37
nColumns=38
inDegrees=no

Units are S.I. units (second, meters, Newtons, ...)
If the header above contains a line with 'inDegrees', this indicates whether rotational values are in degrees (yes) or radians (no).

endheader
time	pelvis_tilt	pelvis_list	pelvis_rotation	pelvis_tx	pelvis_ty	pelvis_tz	hip_flexion_r	hip_adduction_r	hip_rotation_r	knee_angle_r	ankle_angle_r	subtalar_angle_r	mtp_angle_r	hip_flexion_l	hip_adduction_l	hip_rotation_l	knee_angle_l	ankle_angle_l	subtalar_angle_l	mtp_angle_l	lumbar_extension	lumbar_bending	lumbar_rotation	arm_flex_r	arm_add_r	arm_rot_r	elbow_flex_r	pro_sup_r	wrist_flex_r	wrist_dev_r	arm_flex_l	arm_add_l	arm_rot_l	elbow_flex_l	pro_sup_l	wrist_flex_l	wrist_dev_l
0.83	-0.622755	1.39834	-0.712894	0.58562	1.0801	0.944344	0.0389069	0.179492	-0.0268728	0.29167	-0.274759	0	0	0.0346885	-0.180138	0.150389	1.20482	-0.542722	0	0	-0.372244	0.199849	-0.094836	-0.210924	-0.516903	0.540947	0.830609	0.874384	0	0	-0.235954	-0.156421	-0.186267	0.644662	1.5708	0	0
0.84	-0.578011	1.40266	-0.76338	0.585395	1.07004	0.944038	0.0102781	0.175793	-0.00944156	0.263008	-0.261018	0	0	0.067714	-0.176468	0.121857	1.25396	-0.523401	0	0	-0.373525	0.187412	-0.0889303	-0.222068	-0.508147	0.516982	0.832503	0.896136	0	0	-0.243036	-0.160268	-0.185085	0.65766	1.5708	0	0
0.85	-0.551486	1.39899	-0.79743	0.58541	1.06104	0.945337	-0.0146569	0.177606	-0.000716871	0.247938	-0.262605	0	0	0.0942846	-0.178522	0.103503	1.29216	-0.492929	0	0	-0.381445	0.183533	-0.0816531	-0.215693	-0.508787	0.52697	0.828519	0.887895	0	0	-0.242678	-0.159996	-0.186508	0.660259	1.5708	0	0
0.86	-0.556205	1.38421	-0.807776	0.584567	1.05062	0.945672	-0.0492786	0.193463	0.0162899	0.225553	-0.264105	0	0	0.129063	-0.268736	-0.0410473	1.34307	-0.514293	0	0	-0.393039	0.188714	-0.0672525	-0.217035	-0.516908	0.532895	0.839831	0.87888	0	0	-0.253846	-0.157977	-0.191766	0.676921	1.5708	0	0
0.87	-0.519572	1.38075	-0.853549	0.584464	1.04178	0.947134	-0.07641	0.191988	0.0275027	0.207482	-0.270175	0	0	0.152799	-0.274056	-0.0847482	1.37323	-0.499925	0	0	-0.394627	0.183038	-0.00965408	-0.286645	-0.479545	0.388704	0.845706	0.968149	0	0	-0.215834	-0.233516	0.0611043	0.664373	1.38073	0	0
0.88	-0.469979	1.39396	-0.902995	0.585521	1.0348	0.948926	-0.0827819	0.174626	0.0258829	0.201054	-0.273789	0	0	0.176475	-0.184639	0.019624	1.3726	-0.431016	0	0	-0.400401	0.164938	-0.0606861	-0.199499	-0.506816	0.544249	0.817629	0.866249	0	0	-0.239878	-0.160122	-0.189824	0.667607	1.5708	0	0
0.89	-0.480468	1.37429	-0.906643	0.585365	1.02565	0.951136	-0.112239	0.188126	0.00560775	0.194283	-0.286859	0	0	0.19502	-0.267522	-0.0956071	1.39594	-0.44441	0	0	-0.419281	0.17407	-0.0427452	-0.20029	-0.51091	0.537454	0.823985	0.872955	0	0	-0.238793	-0.15647	-0.190725	0.671049	1.5708	0	0
0.9	-0.425974	1.38548	-0.967658	0.585299	1.01673	0.950499	-0.128111	0.174099	0.0322984	0.176584	-0.274421	0	0	0.221792	-0.245854	-0.0975298	1.40424	-0.405487	0	0	-0.414371	0.154064	-0.0410833	-0.203864	-0.503001	0.52648	0.822209	0.881982	0	0	-0.242819	-0.161697	-0.187734	0.678948	1.5708	0	0
0.91	-0.368072	1.39565	-1.02661	0.586286	1.00971	0.951817	-0.133933	0.158161	0.0306886	0.175733	-0.271473	0	0	0.242157	-0.170847	-0.0156883	1.38898	-0.362558	0	0	-0.413444	0.138333	-0.0403315	-0.197706	-0.493028	0.520307	0.808029	0.885555	0	0	-0.229249	-0.165053	-0.179678	0.666238	1.5708	0	0
0.92	-0.350613	1.39364	-1.05318	0.586486	1.00104	0.952106	-0.151036	0.156292	0.03862	0.17039	-0.268001	0	0	0.264245	-0.192188	-0.0606963	1.39184	-0.355546	0	0	-0.418094	0.132612	-0.0361367	-0.192986	-0.494504	0.525329	0.809062	0.882913	0	0	-0.231949	-0.164386	-0.184382	0.671608	1.5708	0	0
0.93	-0.315404	1.39734	-1.09296	0.587153	0.9933	0.952662	-0.162566	0.147859	0.0442115	0.165508	-0.264313	0	0	0.283429	-0.169457	-0.0468024	1.37807	-0.327697	0	0	-0.419615	0.122783	-0.035834	-0.182867	-0.493351	0.537135	0.801767	0.875677	0	0	-0.227997	-0.165056	-0.1862	0.669296	1.5708	0	0
0.94	-0.300466	1.39291	-1.11698	0.587434	0.984506	0.952807	-0.183413	0.147132	0.0529064	0.156384	-0.261973	0	0	0.300204	-0.19774	-0.0993298	1.37368	-0.319218	0	0	-0.425786	0.118633	-0.0304797	-0.178568	-0.496661	0.544863	0.80411	0.872697	0	0	-0.230816	-0.165181	-0.188588	0.674993	1.5708	0	0
0.95	-0.263024	1.39934	-1.15468	0.588665	0.977292	0.953085	-0.192525	0.137093	0.0583168	0.147659	-0.259961	0	0	0.318448	-0.155845	-0.0569363	1.34469	-0.286786	0	0	-0.425304	0.109445	-0.0338613	-0.167107	-0.494806	0.556631	0.794953	0.865945	0	0	-0.224661	-0.166527	-0.188098	0.670972	1.5708	0	0
0.96	-0.242645	1.4001	-1.17898	0.589621	0.969223	0.953072	-0.208186	0.132757	0.0664207	0.13614	-0.258648	0	0	0.333809	-0.152396	-0.0655349	1.31966	-0.270191	0	0	-0.427379	0.104663	-0.0326745	-0.161309	-0.496215	0.563784	0.793428	0.862157	0	0	-0.222749	-0.166804	-0.18778	0.671468	1.5708	0	0
0.97	-0.22152	1.40088	-1.20279	0.590699	0.961284	0.952945	-0.225657	0.128228	0.0770994	0.118676	-0.261863	0	0	0.34646	-0.146693	-0.071713	1.28624	-0.248205	0	0	-0.422205	0.101356	0.0202209	-0.236606	-0.45801	0.395405	0.802137	0.983244	0	0	-0.17891	-0.241466	0.0760812	0.653213	1.37382	0	0
0.98	-0.209988	1.40265	-1.21665	0.59207	0.953182	0.952579	-0.241391	0.12449	0.0879809	0.101933	-0.265469	0	0	0.359679	-0.142707	-0.078795	1.24784	-0.236465	0	0	-0.429883	0.0976388	-0.0317923	-0.151486	-0.500015	0.577195	0.792961	0.849401	0	0	-0.219084	-0.16732	-0.185388	0.673769	1.5708	0	0
0.99	-0.196812	1.40407	-1.22977	0.593577	0.945212	0.952057	-0.256087	0.121268	0.0937008	0.0890352	-0.264379	0	0	0.371538	-0.137127	-0.0824942	1.20363	-0.232662	0	0	-0.430706	0.0958591	-0.0318172	-0.152148	-0.499802	0.570422	0.795289	0.852469	0	0	-0.216883	-0.167931	-0.182552	0.675903	1.5708	0	0
1	-0.137077	1.42206	-1.28989	0.595787	0.937461	0.94891	-0.113545	0.0744087	-0.158352	0.460635	-0.109339	0	0	0.398276	-0.114272	-0.0843554	1.15792	-0.23034	0	0	-0.414746	0.0827618	-0.0297013	-0.168491	-0.496368	0.53836	0.804179	0.871838	0	0	-0.21656	-0.180105	-0.144899	0.682377	1.54636	0	0
1.01	-0.154308	1.41916	-1.27151	0.597201	0.929532	0.948946	-0.159171	0.0878704	-0.100142	0.370961	-0.127733	0	0	0.403178	-0.117134	-0.0881733	1.10161	-0.234815	0	0	-0.419194	0.0871632	-0.0280572	-0.167033	-0.495559	0.533937	0.803363	0.87612	0	0	-0.211818	-0.180005	-0.142583	0.681649	1.54572	0	0
1.02	-0.138245	1.42918	-1.28476	0.599323	0.921765	0.947356	-0.139395	0.0765164	-0.141071	0.425349	-0.109708	0	0	0.419432	-0.104751	-0.0848204	1.04324	-0.240153	0	0	-0.411056	0.0839947	-0.0344532	-0.160213	-0.497637	0.546145	0.800656	0.866967	0	0	-0.211488	-0.175814	-0.155649	0.682748	1.55595	0	0
1.03	-0.125252	1.43524	-1.29765	0.601167	0.913462	0.945984	-0.131634	0.0688954	-0.165607	0.460198	-0.0921648	0	0	0.426613	-0.0983681	-0.0912259	0.97998	-0.243354	0	0	-0.406172	0.0816282	-0.0372878	-0.155544	-0.499824	0.555421	0.799264	0.860088	0	0	-0.211206	-0.171931	-0.165682	0.683478	1.56485	0	0
1.04	-0.121895	1.43808	-1.30175	0.602833	0.904988	0.944999	-0.140139	0.067793	-0.166116	0.459131	-0.0841704	0	0	0.427631	-0.0953837	-0.100448	0.913175	-0.244794	0	0	-0.404163	0.0810254	-0.0376449	-0.151736	-0.501125	0.561863	0.797152	0.854303	0	0	-0.209405	-0.168685	-0.173084	0.68238	1.5708	0	0
1.05	-0.116814	1.44018	-1.30839	0.604507	0.896473	0.944052	-0.150066	0.0667956	-0.163638	0.456189	-0.0786939	0	0	0.424417	-0.0927074	-0.111532	0.842166	-0.243904	0	0	-0.403078	0.0801171	-0.0372736	-0.148065	-0.502492	0.567663	0.795386	0.848905	0	0	-0.207612	-0.166911	-0.176097	0.68152	1.5708	0	0
1.06	-0.111874	1.44209	-1.31598	0.60612	0.888012	0.943097	-0.159932	0.0659083	-0.157884	0.45342	-0.0737791	0	0	0.417749	-0.0900679	-0.122532	0.766106	-0.241102	0	0	-0.40268	0.0788247	-0.0356362	-0.145003	-0.503898	0.571766	0.794574	0.842961	0	0	-0.205732	-0.16607	-0.176693	0.681304	1.5708	0	0
1.07	-0.106834	1.43938	-1.32505	0.607549	0.879033	0.942247	-0.176691	0.0666401	-0.151884	0.446989	-0.0695975	0	0	0.402805	-0.0926952	-0.14445	0.687341	-0.236968	0	0	-0.399006	0.0789003	0.0250336	-0.234884	-0.461045	0.374987	0.808523	0.980684	0	0	-0.158771	-0.243283	0.100824	0.662288	1.3596	0	0
1.08	-0.118375	1.44719	-1.31264	0.609773	0.870247	0.940624	-0.179382	0.0662974	-0.151266	0.446702	-0.0626159	0	0	0.397488	-0.0852092	-0.13937	0.600626	-0.236328	0	0	-0.398017	0.079003	-0.0264723	-0.160058	-0.497307	0.533794	0.79681	0.868305	0	0	-0.198854	-0.166235	-0.166946	0.67707	1.5708	0	0
1.09	-0.128074	1.46008	-1.29672	0.612484	0.862199	0.938693	-0.175898	0.0654494	-0.150716	0.446654	-0.0571913	0	0	0.396979	-0.0694082	-0.11004	0.510575	-0.2389	0	0	-0.385483	0.0795618	-0.0310456	-0.16063	-0.493712	0.528212	0.791243	0.872518	0	0	-0.19344	-0.165777	-0.164159	0.670403	1.5708	0	0
1.1	-0.136352	1.46526	-1.28667	0.614865	0.853274	0.937213	-0.184258	0.0666154	-0.146242	0.439338	-0.0542377	0	0	0.3851	-0.0625396	-0.0981794	0.423704	-0.242325	0	0	-0.380272	0.0802289	-0.0315745	-0.163303	-0.491679	0.521421	0.789332	0.877345	0	0	-0.190928	-0.165019	-0.162118	0.667381	1.5708	0	0
1.11	-0.143266	1.46256	-1.28289	0.616906	0.843444	0.936098	-0.203421	0.069486	-0.138896	0.427849	-0.0528072	0	0	0.361724	-0.0634112	-0.102688	0.340707	-0.24453	0	0	-0.382225	0.0812886	-0.0271209	-0.169324	-0.49165	0.511888	0.792428	0.884049	0	0	-0.191637	-0.164464	-0.159672	0.668472	1.5708	0	0
1.12	-0.151708	1.46643	-1.27292	0.619464	0.834251	0.934639	-0.212467	0.0702329	-0.134735	0.422843	-0.0503101	0	0	0.345318	-0.0580007	-0.0872667	0.260172	-0.248633	0	0	-0.37766	0.0821624	-0.0262851	-0.174391	-0.48945	0.500985	0.791549	0.890995	0	0	-0.188903	-0.16478	-0.154025	0.664801	1.5708	0	0
1.13	-0.165439	1.47139	-1.25641	0.622173	0.82502	0.933064	-0.219392	0.0711462	-0.130788	0.419563	-0.0479959	0	0	0.330517	-0.0529278	-0.0686513	0.187059	-0.255118	0	0	-0.371275	0.083356	-0.0256743	-0.180878	-0.48656	0.487918	0.790485	0.89986	0	0	-0.185869	-0.167789	-0.140152	0.660911	1.56762	0	0
1.14	-0.180292	1.47542	-1.2389	0.624907	0.815564	0.931551	-0.226262	0.071863	-0.12828	0.418843	-0.0463791	0	0	0.318463	-0.0491375	-0.0539101	0.131659	-0.25992	0	0	-0.36535	0.0845794	-0.0260754	-0.186862	-0.484277	0.477096	0.790052	0.907635	0	0	-0.184485	-0.171784	-0.124056	0.658853	1.55565	0	0
1.15	-0.194454	1.47774	-1.22436	0.627502	0.805979	0.930207	-0.233297	0.071967	-0.124551	0.42166	-0.0456814	0	0	0.313335	-0.0481089	-0.0555001	0.109025	-0.252624	0	0	-0.360628	0.0854398	-0.0255135	-0.188973	-0.486629	0.48099	0.790685	0.898655	0	0	-0.184579	-0.176708	-0.105547	0.658465	1.53849	0	0
1.16	-0.212538	1.47383	-1.2104	0.628982	0.795902	0.929496	-0.247806	0.0757063	-0.112718	0.420385	-0.0486098	0	0	0.292937	-0.0680602	-0.0624841	0.0546333	-0.304309	0	0	-0.363924	0.0858696	-0.0262995	-0.184	-0.488015	0.492507	0.789857	0.892423	0	0	-0.190737	-0.171362	-0.128601	0.664421	1.55635	0	0
1.17	-0.175981	1.47492	-1.24572	0.632345	0.786583	0.928671	-0.255055	0.068781	-0.114102	0.42857	-0.0497169	0	0	0.312313	-0.0486349	-0.0843863	0.144417	-0.246541	0	0	-0.358005	0.0838602	0.00764275	-0.240123	-0.459076	0.368452	0.796284	0.983796	0	0	-0.159645	-0.224255	0.0697265	0.649627	1.39836	0	0
1.18	-0.171857	1.46956	-1.25477	0.633945	0.776277	0.928531	-0.271198	0.0699731	-0.101222	0.427794	-0.0565079	0	0	0.295808	-0.0667027	-0.0909287	0.123778	-0.297905	0	0	-0.369654	0.0813626	-0.0376859	-0.167149	-0.494304	0.528429	0.785628	0.868344	0	0	-0.20164	-0.160588	-0.166223	0.672943	1.5708	0	0
1.19	-0.122518	1.46791	-1.30427	0.637483	0.766362	0.928135	-0.281035	0.0607239	-0.103901	0.437512	-0.0617632	0	0	0.318227	-0.0511802	-0.134733	0.241834	-0.231028	0	0	-0.372032	0.0778937	-0.0391473	-0.172225	-0.493156	0.516102	0.786857	0.877789	0	0	-0.201975	-0.158996	-0.164976	0.672783	1.5708	0	0
